<svg width="16" height="15" viewBox="0 0 16 15" fill="none" xmlns="http://www.w3.org/2000/svg">
<g id="Facebook / Negative" clip-path="url(#clip0_1_686)">
<path id="Vector" d="M15.0586 7.72027C15.0586 3.73154 11.734 0.498047 7.63282 0.498047C3.53167 0.498047 0.207031 3.73154 0.207031 7.72027C0.207031 11.325 2.92252 14.3129 6.47254 14.8548V9.80794H4.58708V7.72027H6.47254V6.12912C6.47254 4.31905 7.58118 3.31923 9.27737 3.31923C10.0896 3.31923 10.9396 3.46029 10.9396 3.46029V5.23763H10.0033C9.08084 5.23763 8.79309 5.79439 8.79309 6.3661V7.72027H10.8526L10.5234 9.80794H8.79309V14.8548C12.3431 14.3129 15.0586 11.325 15.0586 7.72027Z" fill="white"/>
</g>
<defs>
<clipPath id="clip0_1_686">
<rect width="14.8516" height="14.4444" fill="white" transform="translate(0.207031 0.498047)"/>
</clipPath>
</defs>
</svg>
