<svg width="15" height="15" viewBox="0 0 15 15" fill="none" xmlns="http://www.w3.org/2000/svg">
<g id="Group">
<path id="Vector" d="M7.42579 1.30056C9.40986 1.30056 9.64482 1.30903 10.4251 1.34288C11.1503 1.37391 11.5419 1.4924 11.8029 1.59115C12.1481 1.72092 12.3976 1.87891 12.6557 2.12999C12.9168 2.3839 13.0763 2.6237 13.2098 2.95942C13.3113 3.21333 13.4331 3.59701 13.465 4.29948C13.4998 5.0612 13.5085 5.28971 13.5085 7.21658C13.5085 9.14627 13.4998 9.37478 13.465 10.1337C13.4331 10.839 13.3113 11.2198 13.2098 11.4737C13.0763 11.8095 12.9139 12.0521 12.6557 12.3032C12.3947 12.5571 12.1481 12.7122 11.8029 12.842C11.5419 12.9408 11.1474 13.0592 10.4251 13.0903C9.64192 13.1241 9.40696 13.1326 7.42579 13.1326C5.44171 13.1326 5.20675 13.1241 4.42646 13.0903C3.70129 13.0592 3.3097 12.9408 3.04863 12.842C2.70345 12.7122 2.45399 12.5543 2.19583 12.3032C1.93477 12.0493 1.77523 11.8095 1.64179 11.4737C1.54027 11.2198 1.41844 10.8362 1.38653 10.1337C1.35172 9.37196 1.34302 9.14345 1.34302 7.21658C1.34302 5.28689 1.35172 5.05838 1.38653 4.29948C1.41844 3.59418 1.54027 3.21333 1.64179 2.95942C1.77523 2.6237 1.93767 2.38108 2.19583 2.12999C2.45689 1.87609 2.70345 1.72092 3.04863 1.59115C3.3097 1.4924 3.70419 1.37391 4.42646 1.34288C5.20675 1.30903 5.44171 1.30056 7.42579 1.30056ZM7.42579 0C5.4098 0 5.15744 0.00846354 4.36555 0.0423177C3.57656 0.0761719 3.03413 0.200304 2.56422 0.378038C2.074 0.564236 1.6592 0.809679 1.2473 1.21311C0.8325 1.61372 0.580139 2.01714 0.388693 2.4911C0.20595 2.95096 0.0783188 3.47569 0.0435105 4.24306C0.00870209 5.01606 0 5.2615 0 7.22222C0 9.18294 0.00870209 9.42839 0.0435105 10.1986C0.0783188 10.9659 0.20595 11.4935 0.388693 11.9505C0.580139 12.4273 0.8325 12.8307 1.2473 13.2313C1.6592 13.6319 2.074 13.8802 2.56132 14.0636C3.03413 14.2413 3.57366 14.3655 4.36265 14.3993C5.15454 14.4332 5.4069 14.4416 7.42288 14.4416C9.43887 14.4416 9.69123 14.4332 10.4831 14.3993C11.2721 14.3655 11.8145 14.2413 12.2845 14.0636C12.7718 13.8802 13.1866 13.6319 13.5985 13.2313C14.0104 12.8307 14.2656 12.4273 14.4542 11.9533C14.6369 11.4935 14.7646 10.9688 14.7994 10.2014C14.8342 9.43121 14.8429 9.18576 14.8429 7.22504C14.8429 5.26432 14.8342 5.01888 14.7994 4.2487C14.7646 3.48134 14.6369 2.95378 14.4542 2.49674C14.2714 2.01714 14.0191 1.61372 13.6043 1.21311C13.1924 0.8125 12.7776 0.564236 12.2903 0.380859C11.8174 0.203125 11.2779 0.0789931 10.4889 0.0451389C9.69413 0.00846354 9.44177 0 7.42579 0Z" fill="#030213"/>
<path id="Vector_2" d="M7.42574 3.5127C5.31984 3.5127 3.61133 5.17437 3.61133 7.22255C3.61133 9.27072 5.31984 10.9324 7.42574 10.9324C9.53165 10.9324 11.2402 9.27072 11.2402 7.22255C11.2402 5.17437 9.53165 3.5127 7.42574 3.5127ZM7.42574 9.62901C6.05952 9.62901 4.95145 8.55132 4.95145 7.22255C4.95145 5.89377 6.05952 4.81608 7.42574 4.81608C8.79197 4.81608 9.90004 5.89377 9.90004 7.22255C9.90004 8.55132 8.79197 9.62901 7.42574 9.62901Z" fill="#030213"/>
<path id="Vector_3" d="M12.281 3.3661C12.281 3.8457 11.8807 4.23221 11.3905 4.23221C10.8974 4.23221 10.5 3.84288 10.5 3.3661C10.5 2.8865 10.9003 2.5 11.3905 2.5C11.8807 2.5 12.281 2.88932 12.281 3.3661Z" fill="#030213"/>
</g>
</svg>
