<svg width="16" height="15" viewBox="0 0 16 15" fill="none" xmlns="http://www.w3.org/2000/svg">
<g id="Instagram / Negative" clip-path="url(#clip0_1_690)">
<g id="Group">
<path id="Vector" d="M7.84082 1.79861C9.8249 1.79861 10.0599 1.80707 10.8401 1.84093C11.5653 1.87196 11.9569 1.99045 12.218 2.08919C12.5632 2.21897 12.8126 2.37695 13.0708 2.62804C13.3318 2.88194 13.4914 3.12175 13.6248 3.45747C13.7263 3.71137 13.8482 4.09505 13.8801 4.79753C13.9149 5.55924 13.9236 5.78776 13.9236 7.71463C13.9236 9.64431 13.9149 9.87283 13.8801 10.6317C13.8482 11.337 13.7263 11.7179 13.6248 11.9718C13.4914 12.3075 13.3289 12.5501 13.0708 12.8012C12.8097 13.0551 12.5632 13.2103 12.218 13.3401C11.9569 13.4388 11.5624 13.5573 10.8401 13.5883C10.057 13.6222 9.822 13.6306 7.84082 13.6306C5.85675 13.6306 5.62179 13.6222 4.8415 13.5883C4.11633 13.5573 3.72473 13.4388 3.46367 13.3401C3.11849 13.2103 2.86903 13.0523 2.61087 12.8012C2.3498 12.5473 2.19027 12.3075 2.05683 11.9718C1.95531 11.7179 1.83348 11.3342 1.80157 10.6317C1.76676 9.87001 1.75806 9.64149 1.75806 7.71463C1.75806 5.78494 1.76676 5.55642 1.80157 4.79753C1.83348 4.09223 1.95531 3.71137 2.05683 3.45747C2.19027 3.12175 2.3527 2.87912 2.61087 2.62804C2.87193 2.37413 3.11849 2.21897 3.46367 2.08919C3.72473 1.99045 4.11923 1.87196 4.8415 1.84093C5.62179 1.80707 5.85675 1.79861 7.84082 1.79861ZM7.84082 0.498047C5.82484 0.498047 5.57248 0.50651 4.78059 0.540365C3.9916 0.574219 3.44917 0.698351 2.97926 0.876085C2.48904 1.06228 2.07424 1.30773 1.66234 1.71115C1.24754 2.11176 0.995179 2.51519 0.803733 2.98915C0.620989 3.449 0.493358 3.97374 0.45855 4.7411C0.423741 5.51411 0.415039 5.75955 0.415039 7.72027C0.415039 9.68099 0.423741 9.92643 0.45855 10.6966C0.493358 11.464 0.620989 11.9915 0.803733 12.4486C0.995179 12.9253 1.24754 13.3288 1.66234 13.7294C2.07424 14.13 2.48904 14.3783 2.97636 14.5616C3.44917 14.7394 3.9887 14.8635 4.77769 14.8974C5.56958 14.9312 5.82194 14.9397 7.83792 14.9397C9.85391 14.9397 10.1063 14.9312 10.8982 14.8974C11.6871 14.8635 12.2296 14.7394 12.6995 14.5616C13.1868 14.3783 13.6016 14.13 14.0135 13.7294C14.4254 13.3288 14.6807 12.9253 14.8692 12.4514C15.052 11.9915 15.1796 11.4668 15.2144 10.6994C15.2492 9.92925 15.2579 9.68381 15.2579 7.72309C15.2579 5.76237 15.2492 5.51693 15.2144 4.74675C15.1796 3.97938 15.052 3.45182 14.8692 2.99479C14.6865 2.51519 14.4341 2.11176 14.0193 1.71115C13.6074 1.31055 13.1926 1.06228 12.7053 0.878906C12.2325 0.701172 11.693 0.57704 10.904 0.543186C10.1092 0.50651 9.85681 0.498047 7.84082 0.498047Z" fill="white"/>
<path id="Vector_2" d="M7.84078 4.01074C5.73488 4.01074 4.02637 5.67242 4.02637 7.72059C4.02637 9.76877 5.73488 11.4304 7.84078 11.4304C9.94669 11.4304 11.6552 9.76877 11.6552 7.72059C11.6552 5.67242 9.94669 4.01074 7.84078 4.01074ZM7.84078 10.1271C6.47456 10.1271 5.36649 9.04937 5.36649 7.72059C5.36649 6.39182 6.47456 5.31413 7.84078 5.31413C9.20701 5.31413 10.3151 6.39182 10.3151 7.72059C10.3151 9.04937 9.20701 10.1271 7.84078 10.1271Z" fill="white"/>
<path id="Vector_3" d="M12.697 3.86415C12.697 4.34375 12.2967 4.73025 11.8065 4.73025C11.3134 4.73025 10.916 4.34093 10.916 3.86415C10.916 3.38455 11.3163 2.99805 11.8065 2.99805C12.2967 2.99805 12.697 3.38737 12.697 3.86415Z" fill="white"/>
</g>
</g>
<defs>
<clipPath id="clip0_1_690">
<rect width="14.8516" height="14.4444" fill="white" transform="translate(0.415039 0.498047)"/>
</clipPath>
</defs>
</svg>
