<svg width="16" height="15" viewBox="0 0 16 15" fill="none" xmlns="http://www.w3.org/2000/svg">
<path id="Vector" d="M14.6798 0H2.02408C1.41783 0 0.927612 0.465495 0.927612 1.04102V13.4006C0.927612 13.9761 1.41783 14.4444 2.02408 14.4444H14.6798C15.2861 14.4444 15.7792 13.9761 15.7792 13.4034V1.04102C15.7792 0.465495 15.2861 0 14.6798 0ZM5.33377 12.3088H3.12924V5.41385H5.33377V12.3088ZM4.23151 4.47439C3.52374 4.47439 2.9523 3.91862 2.9523 3.23307C2.9523 2.54753 3.52374 1.99175 4.23151 1.99175C4.93638 1.99175 5.50781 2.54753 5.50781 3.23307C5.50781 3.9158 4.93638 4.47439 4.23151 4.47439ZM13.5834 12.3088H11.3817V8.95725C11.3817 8.15885 11.3672 7.12912 10.2359 7.12912C9.09017 7.12912 8.91613 8.00087 8.91613 8.90083V12.3088H6.7174V5.41385H8.82911V6.35612H8.85812C9.15109 5.81445 9.87046 5.24175 10.9408 5.24175C13.1715 5.24175 13.5834 6.66927 13.5834 8.52561V12.3088Z" fill="#030213"/>
</svg>
