<svg width="15" height="15" viewBox="0 0 15 15" fill="none" xmlns="http://www.w3.org/2000/svg">
<g id="LinkedIn / Negative" clip-path="url(#clip0_1_695)">
<g id="Group">
<path id="Vector" d="M13.7719 0.498047H1.11612C0.509871 0.498047 0.0196533 0.963542 0.0196533 1.53906V13.8987C0.0196533 14.4742 0.509871 14.9425 1.11612 14.9425H13.7719C14.3781 14.9425 14.8712 14.4742 14.8712 13.9015V1.53906C14.8712 0.963542 14.3781 0.498047 13.7719 0.498047ZM4.42581 12.8069H2.22128V5.91189H4.42581V12.8069ZM3.32355 4.97244C2.61578 4.97244 2.04434 4.41667 2.04434 3.73112C2.04434 3.04557 2.61578 2.4898 3.32355 2.4898C4.02842 2.4898 4.59985 3.04557 4.59985 3.73112C4.59985 4.41385 4.02842 4.97244 3.32355 4.97244ZM12.6754 12.8069H10.4738V9.4553C10.4738 8.6569 10.4593 7.62717 9.32799 7.62717C8.18221 7.62717 8.00817 8.49892 8.00817 9.39887V12.8069H5.80944V5.91189H7.92115V6.85417H7.95016C8.24313 6.3125 8.9625 5.7398 10.0329 5.7398C12.2635 5.7398 12.6754 7.16732 12.6754 9.02365V12.8069Z" fill="white"/>
</g>
</g>
<defs>
<clipPath id="clip0_1_695">
<rect width="14.8516" height="14.4444" fill="white" transform="translate(0.0196533 0.498047)"/>
</clipPath>
</defs>
</svg>
