<svg width="20" height="19" viewBox="0 0 20 19" fill="none" xmlns="http://www.w3.org/2000/svg">
<path id="Vector" d="M15.912 11.82C15.653 12.071 15.534 12.434 15.593 12.79L16.482 17.71C16.5571 18.127 16.3811 18.549 16.0321 18.79C15.6901 19.04 15.2351 19.07 14.8621 18.87L10.433 16.56C10.279 16.478 10.108 16.434 9.93305 16.429H9.66205C9.56805 16.443 9.47605 16.473 9.39205 16.519L4.96204 18.84C4.74304 18.95 4.49504 18.989 4.25204 18.95C3.66004 18.838 3.26504 18.274 3.36204 17.679L4.25204 12.759C4.31104 12.4 4.19204 12.035 3.93304 11.78L0.32204 8.27998C0.0200397 7.98698 -0.0849601 7.54698 0.0530399 7.15C0.18704 6.754 0.52904 6.465 0.94204 6.4L5.91204 5.679C6.29004 5.64 6.62204 5.41 6.79204 5.07L8.98205 0.58C9.03405 0.48 9.10105 0.388 9.18205 0.31L9.27205 0.24C9.31905 0.188 9.37305 0.145 9.43305 0.11L9.54205 0.0700002L9.71205 0H10.133C10.509 0.039 10.84 0.264 11.013 0.6L13.232 5.07C13.392 5.397 13.703 5.624 14.062 5.679L19.0321 6.4C19.4521 6.46 19.8031 6.75 19.9421 7.15C20.0731 7.55098 19.9601 7.99098 19.6521 8.27998L15.912 11.82Z" fill="#FACD49"/>
</svg>
