<svg width="15" height="12" viewBox="0 0 15 12" fill="none" xmlns="http://www.w3.org/2000/svg">
<path id="Vector" d="M4.67215 11.7365C10.2751 11.7365 13.3406 7.22068 13.3406 3.30573C13.3406 3.17877 13.3377 3.049 13.3319 2.92205C13.9282 2.50262 14.4428 1.98309 14.8516 1.38789C14.2962 1.62821 13.7065 1.78516 13.1027 1.85338C13.7385 1.48275 14.2145 0.900493 14.4426 0.21456C13.8445 0.559295 13.1904 0.802476 12.5084 0.933679C12.0489 0.458788 11.4413 0.144353 10.7796 0.03899C10.1179 -0.0663734 9.43891 0.0432026 8.84766 0.350777C8.25641 0.658351 7.78581 1.14679 7.50861 1.74058C7.23141 2.33437 7.16305 3.00044 7.31411 3.63581C6.10306 3.5767 4.91831 3.27073 3.83664 2.73772C2.75498 2.20472 1.80056 1.45658 1.03526 0.541817C0.64629 1.19406 0.527266 1.96588 0.702374 2.7004C0.877483 3.43493 1.33359 4.07705 1.97799 4.49627C1.49421 4.48133 1.02103 4.35465 0.597544 4.12669V4.16337C0.59711 4.84785 0.840412 5.51135 1.28609 6.04109C1.73177 6.57083 2.35232 6.93411 3.04225 7.06918C2.59411 7.18844 2.12376 7.20581 1.66761 7.11996C1.8623 7.70862 2.24109 8.22348 2.75111 8.59268C3.26114 8.96188 3.87695 9.167 4.51261 9.17943C3.43345 10.0039 2.10037 10.4511 0.728075 10.449C0.48471 10.4486 0.241585 10.4341 0 10.4055C1.3941 11.2754 3.01582 11.7374 4.67215 11.7365Z" fill="#030213"/>
</svg>
