<svg width="16" height="15" viewBox="0 0 16 15" fill="none" xmlns="http://www.w3.org/2000/svg">
<g id="Twitter / Negative" clip-path="url(#clip0_1_688)">
<path id="Vector" d="M5.48365 13.5881C11.0866 13.5881 14.1521 9.07224 14.1521 5.15729C14.1521 5.03034 14.1492 4.90056 14.1434 4.77361C14.7397 4.35418 15.2543 3.83466 15.6631 3.23945C15.1077 3.47977 14.518 3.63672 13.9142 3.70495C14.55 3.33431 15.026 2.75206 15.2541 2.06612C14.656 2.41086 14.0019 2.65404 13.3199 2.78524C12.8603 2.31035 12.2528 1.99592 11.5911 1.89055C10.9294 1.78519 10.2504 1.89477 9.65915 2.20234C9.06791 2.50991 8.5973 2.99835 8.3201 3.59214C8.0429 4.18594 7.97455 4.852 8.1256 5.48737C6.91455 5.42826 5.7298 5.12229 4.64814 4.58928C3.56648 4.05628 2.61206 3.30815 1.84675 2.39338C1.45778 3.04562 1.33876 3.81744 1.51387 4.55197C1.68898 5.28649 2.14508 5.92862 2.78948 6.34783C2.3057 6.33289 1.83252 6.20621 1.40904 5.97825V6.01493C1.4086 6.69941 1.6519 7.36291 2.09758 7.89265C2.54326 8.42239 3.16381 8.78567 3.85374 8.92074C3.4056 9.04 2.93526 9.05737 2.4791 8.97153C2.67379 9.56018 3.05258 10.075 3.5626 10.4442C4.07263 10.8134 4.68845 11.0186 5.32411 11.031C4.24494 11.8554 2.91186 12.3026 1.53957 12.3005C1.2962 12.3002 1.05308 12.2857 0.811493 12.2571C2.2056 13.1269 3.82731 13.5889 5.48365 13.5881Z" fill="white"/>
</g>
<defs>
<clipPath id="clip0_1_688">
<rect width="14.8516" height="14.4444" fill="white" transform="translate(0.811493 0.498047)"/>
</clipPath>
</defs>
</svg>
